{"title":"Megamind 2010.1080p.AC3 5.1 ,blu-rayrip.MKV","uid":6183969,"size":4685370806,"categoryP":"video","categoryS":"hd___movies","magnet":"?xt=urn:btih:848a44c02e9a9a354705e0c1ba8d529082d1a7aa&amp;dn=Megamind+2010.1080p.AC3+5.1+%2Cblu-rayrip.MKV&amp;tr=udp%3A%2F%2Ftracker.openbittorrent.com%3A80&amp;tr=udp%3A%2F%2Fopen.demonii.com%3A1337&amp;tr=udp%3A%2F%2Ftracker.coppersurfer.tk%3A6969&amp;tr=udp%3A%2F%2Fexodus.desync.com%3A6969","seeders":0,"leechers":0,"uploader":"joshua1964","files":1,"time":1298054099,"description":"The supervillain Megamind finally conquers his nemesis, the hero Metro Man... but finds his life pointless without a hero to fight. \n\n\nDirector: Tom McGrath\nWriters: Alan J. Schoolcraft, Brent Simons\nStars:Will Ferrell, Jonah Hill and Brad Pitt  \n \n\nMedia info:\n\n\nGeneral\nComplete name                    : D:\\\\\\\\upload torrents\\\\\\\\Megamind 2010.1080p.AC3 5.1 ,blu-rayrip.MKV\\\\\\\\Megamind 2010.1080p.AC3 5.1 ,blu-rayrip.MKV.mkv\nFormat                           : Matroska\nFile size                        : 4.36 GiB\nDuration                         : 1h 35mn\nOverall bit rate                 : 6 536 Kbps\nEncoded date                     : UTC 2011-02-18 17:01:14\nWriting application              : mkvmerge v3.2.0 (\\\\\\'Beginnings\\\\\\') built on Feb 12 2010 16:46:17\nWriting library                  : libebml v0.7.9 + libmatroska v0.8.1\n\nVideo\nID                               : 1\nFormat                           : AVC\nFormat/Info                      : Advanced Video Codec\nFormat profile                   : &lt;a class=&quot;__cf_email__&quot; href=&quot;/cdn-cgi/l/email-protection&quot; data-cfemail=&quot;3078595758707c041e01&quot;&gt;[email&amp;#160;protected]&lt;/a&gt;&lt;script cf-hash='f9e31' type=&quot;text/javascript&quot;&gt;\n/* &lt;![CDATA[ */!function(){try{var t=&quot;currentScript&quot;in document?document.currentScript:function(){for(var t=document.getElementsByTagName(&quot;script&quot;),e=t.length;e--;)if(t[e].getAttribute(&quot;cf-hash&quot;))return t[e]}();if(t&amp;&amp;t.previousSibling){var e,r,n,i,c=t.previousSibling,a=c.getAttribute(&quot;data-cfemail&quot;);if(a){for(e=&quot;&quot;,r=parseInt(a.substr(0,2),16),n=2;a.length-n;n+=2)i=parseInt(a.substr(n,2),16)^r,e+=String.fromCharCode(i);e=document.createTextNode(e),c.parentNode.replaceChild(e,c)}}}catch(u){}}();/* ]]&gt; */&lt;/script&gt;\nFormat settings, CABAC           : Yes\nFormat settings, ReFrames        : 5 frames\nMuxing mode                      : Container profile=&lt;a class=&quot;__cf_email__&quot; href=&quot;/cdn-cgi/l/email-protection&quot; data-cfemail=&quot;5b0e353035342c351b6f756a&quot;&gt;[email&amp;#160;protected]&lt;/a&gt;&lt;script cf-hash='f9e31' type=&quot;text/javascript&quot;&gt;\n/* &lt;![CDATA[ */!function(){try{var t=&quot;currentScript&quot;in document?document.currentScript:function(){for(var t=document.getElementsByTagName(&quot;script&quot;),e=t.length;e--;)if(t[e].getAttribute(&quot;cf-hash&quot;))return t[e]}();if(t&amp;&amp;t.previousSibling){var e,r,n,i,c=t.previousSibling,a=c.getAttribute(&quot;data-cfemail&quot;);if(a){for(e=&quot;&quot;,r=parseInt(a.substr(0,2),16),n=2;a.length-n;n+=2)i=parseInt(a.substr(n,2),16)^r,e+=String.fromCharCode(i);e=document.createTextNode(e),c.parentNode.replaceChild(e,c)}}}catch(u){}}();/* ]]&gt; */&lt;/script&gt;\nCodec ID                         : V_MPEG4/ISO/AVC\nDuration                         : 1h 35mn\nBit rate                         : 5 895 Kbps\nWidth                            : 1 920 pixels\nHeight                           : 816 pixels\nDisplay aspect ratio             : 2.35:1\nFrame rate                       : 23.976 fps\nColor space                      : YUV\nChroma subsampling               : 4:2:0\nBit depth                        : 8 bits\nScan type                        : Progressive\nBits/(Pixel*Frame)               : 0.157\nStream size                      : 3.85 GiB (88%)\nWriting library                  : x264 core 112 r1867 22bfd31\nEncoding settings                : cabac=1 / ref=5 / deblock=1:0:0 / analyse=0x3:0x133 / me=umh / subme=8 / psy=1 / psy_rd=1.00:0.00 / mixed_ref=1 / me_range=16 / chroma_me=1 / trellis=1 / 8x8dct=1 / cqm=0 / deadzone=21,11 / fast_pskip=1 / chroma_qp_offset=-2 / threads=24 / sliced_threads=0 / nr=0 / decimate=1 / interlaced=0 / constrained_intra=0 / bframes=3 / b_pyramid=2 / b_adapt=1 / b_bias=0 / direct=1 / weightb=1 / open_gop=0 / weightp=1 / keyint=250 / keyint_min=23 / scenecut=40 / intra_refresh=0 / rc=2pass / mbtree=0 / bitrate=5895 / ratetol=1.0 / qcomp=0.60 / qpmin=0 / qpmax=51 / qpstep=4 / cplxblur=20.0 / qblur=0.5 / ip_ratio=1.40 / pb_ratio=1.30 / aq=1:1.00\nLanguage                         : English\n\nAudio\nID                               : 2\nFormat                           : AC-3\nFormat/Info                      : Audio Coding 3\nMode extension                   : CM (complete main)\nCodec ID                         : A_AC3\nDuration                         : 1h 35mn\nBit rate mode                    : Constant\nBit rate                         : 640 Kbps\nChannel(s)                       : 6 channels\nChannel positions                : Front: L C R, Side: L R, LFE\nSampling rate                    : 48.0 KHz\nBit depth                        : 16 bits\nStream size                      : 438 MiB (10%)\nLanguage                         : English\n\nText\nID                               : 3\nFormat                           : UTF-8\nCodec ID                         : S_TEXT/UTF8\nCodec ID/Info                    : UTF-8 Plain Text\nLanguage                         : Dutch\n\nMenu\n00:00:00.000                     : en:00:00:00.000\n00:10:00.000                     : en:00:10:00.000\n00:20:00.000                     : en:00:20:00.000\n00:30:00.000                     : en:00:30:00.000\n00:40:00.000                     : en:00:40:00.000\n00:50:00.000                     : en:00:50:00.000\n01:00:00.000                     : en:01:00:00.000\n01:10:00.000                     : en:01:10:00.000\n01:20:00.000                     : en:01:20:00.000\n01:30:00.000                     : en:01:30:00.000\n\n","torrent":{"xt":"urn:btih:848a44c02e9a9a354705e0c1ba8d529082d1a7aa","amp;dn":"Megamind+2010.1080p.AC3+5.1+%2Cblu-rayrip.MKV","amp;tr":["udp%3A%2F%2Ftracker.openbittorrent.com%3A80","udp%3A%2F%2Fopen.demonii.com%3A1337","udp%3A%2F%2Ftracker.coppersurfer.tk%3A6969","udp%3A%2F%2Fexodus.desync.com%3A6969"],"infoHash":"848a44c02e9a9a354705e0c1ba8d529082d1a7aa","infoHashBuffer":{"type":"Buffer","data":[132,138,68,192,46,154,154,53,71,5,224,193,186,141,82,144,130,209,167,170]},"announce":[],"urlList":[]}}